<mxfile host="app.diagrams.net" modified="2024-06-28T15:59:51.220Z" agent="Mozilla/5.0 (Macintosh; Intel Mac OS X 10_15_7) AppleWebKit/537.36 (KHTML, like Gecko) Chrome/126.0.0.0 Safari/537.36" etag="lgGY0IjpieY6QjZosZqK" version="24.6.4" type="github">
  <diagram name="Page-1" id="ogJZk2KDKxXL7JczB5_w">
    <mxGraphModel dx="474" dy="740" grid="1" gridSize="10" guides="1" tooltips="1" connect="1" arrows="1" fold="1" page="1" pageScale="1" pageWidth="827" pageHeight="1169" math="0" shadow="0">
      <root>
        <mxCell id="0" />
        <mxCell id="1" parent="0" />
        <mxCell id="yFUTgFmXpPa_cMq6ObUy-10" style="edgeStyle=orthogonalEdgeStyle;rounded=0;orthogonalLoop=1;jettySize=auto;html=1;exitX=0.5;exitY=1;exitDx=0;exitDy=0;entryX=0.5;entryY=0;entryDx=0;entryDy=0;" edge="1" parent="1" source="yFUTgFmXpPa_cMq6ObUy-1" target="yFUTgFmXpPa_cMq6ObUy-3">
          <mxGeometry relative="1" as="geometry" />
        </mxCell>
        <mxCell id="yFUTgFmXpPa_cMq6ObUy-1" value="&lt;font style=&quot;font-size: 14px;&quot;&gt;开始进入Controller&lt;/font&gt;" style="ellipse;whiteSpace=wrap;html=1;fillColor=#fff2cc;strokeColor=#d6b656;" vertex="1" parent="1">
          <mxGeometry x="390" y="250" width="120" height="80" as="geometry" />
        </mxCell>
        <mxCell id="yFUTgFmXpPa_cMq6ObUy-8" style="edgeStyle=orthogonalEdgeStyle;rounded=0;orthogonalLoop=1;jettySize=auto;html=1;exitX=0.5;exitY=1;exitDx=0;exitDy=0;" edge="1" parent="1" source="yFUTgFmXpPa_cMq6ObUy-3" target="yFUTgFmXpPa_cMq6ObUy-6">
          <mxGeometry relative="1" as="geometry" />
        </mxCell>
        <mxCell id="yFUTgFmXpPa_cMq6ObUy-9" style="edgeStyle=orthogonalEdgeStyle;rounded=0;orthogonalLoop=1;jettySize=auto;html=1;exitX=0.5;exitY=1;exitDx=0;exitDy=0;entryX=0.5;entryY=0;entryDx=0;entryDy=0;" edge="1" parent="1" source="yFUTgFmXpPa_cMq6ObUy-3" target="yFUTgFmXpPa_cMq6ObUy-7">
          <mxGeometry relative="1" as="geometry" />
        </mxCell>
        <mxCell id="yFUTgFmXpPa_cMq6ObUy-3" value="数据库扣减库存" style="rounded=0;whiteSpace=wrap;html=1;fillColor=#f8cecc;strokeColor=#b85450;" vertex="1" parent="1">
          <mxGeometry x="390" y="370" width="120" height="60" as="geometry" />
        </mxCell>
        <mxCell id="yFUTgFmXpPa_cMq6ObUy-12" style="edgeStyle=orthogonalEdgeStyle;rounded=0;orthogonalLoop=1;jettySize=auto;html=1;entryX=0.5;entryY=0;entryDx=0;entryDy=0;" edge="1" parent="1" source="yFUTgFmXpPa_cMq6ObUy-6" target="yFUTgFmXpPa_cMq6ObUy-11">
          <mxGeometry relative="1" as="geometry">
            <Array as="points">
              <mxPoint x="390" y="600" />
              <mxPoint x="450" y="600" />
            </Array>
          </mxGeometry>
        </mxCell>
        <mxCell id="yFUTgFmXpPa_cMq6ObUy-6" value="悲观锁select for update扣减" style="ellipse;whiteSpace=wrap;html=1;aspect=fixed;fillColor=#e1d5e7;strokeColor=#9673a6;" vertex="1" parent="1">
          <mxGeometry x="350" y="500" width="80" height="80" as="geometry" />
        </mxCell>
        <mxCell id="yFUTgFmXpPa_cMq6ObUy-13" style="edgeStyle=orthogonalEdgeStyle;rounded=0;orthogonalLoop=1;jettySize=auto;html=1;exitX=0.5;exitY=1;exitDx=0;exitDy=0;entryX=0.5;entryY=0;entryDx=0;entryDy=0;" edge="1" parent="1" source="yFUTgFmXpPa_cMq6ObUy-7" target="yFUTgFmXpPa_cMq6ObUy-11">
          <mxGeometry relative="1" as="geometry">
            <Array as="points">
              <mxPoint x="510" y="600" />
              <mxPoint x="450" y="600" />
            </Array>
          </mxGeometry>
        </mxCell>
        <mxCell id="yFUTgFmXpPa_cMq6ObUy-7" value="乐观锁version版本扣减" style="ellipse;whiteSpace=wrap;html=1;aspect=fixed;fillColor=#e1d5e7;strokeColor=#9673a6;" vertex="1" parent="1">
          <mxGeometry x="470" y="500" width="80" height="80" as="geometry" />
        </mxCell>
        <mxCell id="yFUTgFmXpPa_cMq6ObUy-11" value="同步删除库存缓存" style="rounded=0;whiteSpace=wrap;html=1;fillColor=#dae8fc;strokeColor=#6c8ebf;" vertex="1" parent="1">
          <mxGeometry x="390" y="650" width="120" height="60" as="geometry" />
        </mxCell>
        <mxCell id="yFUTgFmXpPa_cMq6ObUy-21" style="edgeStyle=orthogonalEdgeStyle;rounded=0;orthogonalLoop=1;jettySize=auto;html=1;entryX=0;entryY=0.5;entryDx=0;entryDy=0;" edge="1" parent="1" source="yFUTgFmXpPa_cMq6ObUy-15" target="yFUTgFmXpPa_cMq6ObUy-17">
          <mxGeometry relative="1" as="geometry" />
        </mxCell>
        <mxCell id="yFUTgFmXpPa_cMq6ObUy-15" value="" style="image;aspect=fixed;perimeter=ellipsePerimeter;html=1;align=center;shadow=0;dashed=0;spacingTop=3;image=img/lib/active_directory/databases.svg;" vertex="1" parent="1">
          <mxGeometry x="630" y="515.5" width="50" height="49" as="geometry" />
        </mxCell>
        <mxCell id="yFUTgFmXpPa_cMq6ObUy-16" value="" style="image;aspect=fixed;perimeter=ellipsePerimeter;html=1;align=center;shadow=0;dashed=0;spacingTop=3;image=img/lib/active_directory/databases.svg;" vertex="1" parent="1">
          <mxGeometry x="730" y="440" width="50" height="49" as="geometry" />
        </mxCell>
        <mxCell id="yFUTgFmXpPa_cMq6ObUy-17" value="" style="image;aspect=fixed;perimeter=ellipsePerimeter;html=1;align=center;shadow=0;dashed=0;spacingTop=3;image=img/lib/active_directory/databases.svg;" vertex="1" parent="1">
          <mxGeometry x="730" y="515.5" width="50" height="49" as="geometry" />
        </mxCell>
        <mxCell id="yFUTgFmXpPa_cMq6ObUy-18" value="" style="image;aspect=fixed;perimeter=ellipsePerimeter;html=1;align=center;shadow=0;dashed=0;spacingTop=3;image=img/lib/active_directory/databases.svg;" vertex="1" parent="1">
          <mxGeometry x="730" y="580" width="50" height="49" as="geometry" />
        </mxCell>
        <mxCell id="yFUTgFmXpPa_cMq6ObUy-20" value="" style="endArrow=classic;html=1;rounded=0;exitX=1;exitY=0.5;exitDx=0;exitDy=0;" edge="1" parent="1" source="yFUTgFmXpPa_cMq6ObUy-15" target="yFUTgFmXpPa_cMq6ObUy-16">
          <mxGeometry width="50" height="50" relative="1" as="geometry">
            <mxPoint x="670" y="540" as="sourcePoint" />
            <mxPoint x="720" y="490" as="targetPoint" />
          </mxGeometry>
        </mxCell>
        <mxCell id="yFUTgFmXpPa_cMq6ObUy-23" value="" style="endArrow=classic;html=1;rounded=0;entryX=0;entryY=0.5;entryDx=0;entryDy=0;exitX=1;exitY=0.5;exitDx=0;exitDy=0;" edge="1" parent="1" source="yFUTgFmXpPa_cMq6ObUy-15" target="yFUTgFmXpPa_cMq6ObUy-18">
          <mxGeometry width="50" height="50" relative="1" as="geometry">
            <mxPoint x="650" y="650" as="sourcePoint" />
            <mxPoint x="700" y="600" as="targetPoint" />
          </mxGeometry>
        </mxCell>
        <mxCell id="yFUTgFmXpPa_cMq6ObUy-24" value="" style="image;sketch=0;aspect=fixed;html=1;points=[];align=center;fontSize=12;image=img/lib/mscae/Cache_Redis_Product.svg;" vertex="1" parent="1">
          <mxGeometry x="630" y="659" width="50" height="42" as="geometry" />
        </mxCell>
        <mxCell id="yFUTgFmXpPa_cMq6ObUy-25" style="edgeStyle=orthogonalEdgeStyle;rounded=0;orthogonalLoop=1;jettySize=auto;html=1;exitX=1;exitY=0.5;exitDx=0;exitDy=0;entryX=0.02;entryY=0.512;entryDx=0;entryDy=0;entryPerimeter=0;" edge="1" parent="1" source="yFUTgFmXpPa_cMq6ObUy-11" target="yFUTgFmXpPa_cMq6ObUy-24">
          <mxGeometry relative="1" as="geometry" />
        </mxCell>
      </root>
    </mxGraphModel>
  </diagram>
</mxfile>
